<?xml version="1.0" standalone="no"?>
<!DOCTYPE svg PUBLIC "-//W3C//DTD SVG 20010904//EN"
 "http://www.w3.org/TR/2001/REC-SVG-20010904/DTD/svg10.dtd">
<svg version="1.0" xmlns="http://www.w3.org/2000/svg"
 width="900.000000pt" height="900.000000pt" viewBox="0 0 900.000000 900.000000"
 preserveAspectRatio="xMidYMid meet">

<g transform="translate(0.000000,900.000000) scale(0.100000,-0.100000)"
fill="#000000" stroke="none">
<path d="M5730 7129 c0 -5 5 -7 10 -4 6 3 10 8 10 11 0 2 -4 4 -10 4 -5 0 -10
-5 -10 -11z"/>
<path d="M1890 6976 c0 -9 5 -16 10 -16 6 0 10 4 10 9 0 6 -4 13 -10 16 -5 3
-10 -1 -10 -9z"/>
<path d="M2795 6549 c-8 -12 -6 -203 4 -414 5 -100 4 -155 -3 -164 -8 -11 -8
-13 0 -8 8 4 14 -11 18 -45 7 -51 19 -234 19 -273 -1 -11 3 -56 8 -100 5 -44
11 -111 13 -150 8 -127 17 -249 22 -290 9 -80 25 -252 30 -320 2 -38 6 -75 8
-81 3 -7 -12 -20 -32 -30 -20 -11 -42 -24 -49 -31 -33 -30 -427 -215 -485
-227 -7 -2 -30 -10 -50 -20 -21 -9 -43 -16 -51 -16 -7 0 -17 -4 -22 -8 -6 -4
-37 -16 -70 -26 -375 -115 -457 -159 -389 -211 12 -9 14 -14 6 -15 -7 0 -10
-5 -7 -11 4 -6 13 -8 21 -5 8 3 14 2 14 -2 0 -4 19 -13 43 -19 23 -7 55 -23
70 -37 29 -27 43 -34 32 -15 -4 5 9 3 29 -5 50 -21 68 -31 69 -42 1 -5 8 -8
14 -8 7 1 11 -1 8 -5 -7 -12 38 -45 64 -49 22 -3 78 -35 91 -53 3 -3 15 -11
28 -18 13 -7 20 -17 16 -24 -4 -7 -4 -9 1 -5 11 10 47 -11 40 -23 -4 -5 -3 -8
2 -7 13 4 73 -44 73 -59 0 -8 14 -19 31 -25 16 -6 28 -12 25 -15 -2 -2 21 -30
52 -60 32 -31 51 -53 45 -49 -7 4 -13 5 -13 1 0 -3 12 -10 26 -15 14 -6 23
-14 20 -19 -3 -5 1 -14 9 -21 8 -7 15 -10 15 -6 0 10 86 -78 92 -96 4 -10 1
-19 -8 -22 -8 -3 -14 -10 -14 -16 0 -16 27 -12 34 6 5 13 9 14 21 4 8 -7 13
-15 11 -19 -5 -7 19 -43 28 -42 3 1 6 -1 6 -5 -1 -3 9 -14 22 -25 13 -11 17
-18 11 -14 -26 13 -12 -6 25 -32 20 -16 37 -35 37 -43 0 -8 5 -14 12 -13 8 2
10 -4 6 -13 -4 -11 -2 -15 7 -12 8 2 33 -18 57 -46 60 -70 63 -74 63 -84 0 -6
9 -12 20 -15 12 -3 20 -14 20 -27 0 -11 4 -19 9 -16 12 8 102 -84 94 -97 -3
-5 -1 -7 5 -3 6 3 26 -12 45 -34 18 -22 39 -40 45 -40 7 0 12 -7 12 -15 0 -8
6 -15 14 -15 8 0 28 -8 45 -17 30 -17 32 -17 68 2 28 15 41 31 51 59 11 35 10
47 -14 120 -14 45 -32 86 -39 91 -7 6 -22 38 -33 70 -11 33 -23 69 -28 79 -5
14 -4 17 4 12 12 -7 17 16 6 27 -4 3 -8 23 -9 44 -4 41 -28 97 -38 86 -4 -3
-7 1 -7 11 0 10 5 14 11 10 7 -4 10 -1 7 7 -3 8 -11 14 -19 14 -8 0 -15 11
-16 25 -1 14 0 18 3 8 11 -35 26 -19 19 19 -8 45 -13 55 -25 48 -5 -3 -11 3
-14 12 -7 24 -66 342 -76 413 -5 30 -18 120 -30 200 -11 80 -23 159 -25 175
-21 142 -33 291 -25 299 6 6 10 7 10 4 0 -3 14 7 31 23 17 16 36 26 42 22 6
-3 7 -1 3 6 -4 6 0 14 11 18 10 3 32 16 48 28 17 12 44 29 62 38 17 9 60 38
95 64 35 27 71 53 80 58 17 11 77 54 243 175 61 45 160 114 221 155 112 75
137 96 132 111 -1 5 5 23 15 40 9 17 13 34 10 38 -11 11 -59 7 -104 -9 -66
-24 -353 -199 -444 -271 -16 -13 -34 -28 -40 -32 -5 -4 -17 -11 -25 -15 -8 -4
-42 -27 -75 -52 -86 -63 -307 -210 -327 -218 -10 -3 -18 -2 -18 3 0 19 -30
346 -35 380 -3 19 -14 166 -25 325 -21 307 -25 357 -40 500 -5 50 -12 158 -16
240 -3 83 -7 166 -8 185 -1 19 -3 52 -4 72 -2 30 -8 40 -32 53 -34 17 -86 20
-95 4z m143 -2051 c1 -13 6 -52 11 -88 5 -36 17 -117 26 -180 8 -63 20 -142
26 -175 5 -33 11 -71 13 -85 3 -14 12 -70 21 -125 9 -55 18 -117 20 -137 2
-21 6 -41 8 -45 3 -5 7 -31 10 -58 3 -28 8 -57 11 -65 3 -8 8 -26 10 -40 3
-14 16 -81 30 -150 14 -69 26 -133 26 -142 0 -18 -26 -25 -32 -9 -1 5 -33 42
-70 82 -145 160 -229 259 -221 259 4 0 -5 9 -22 20 -16 11 -27 20 -24 20 3 0
-53 58 -125 130 -125 123 -357 320 -377 320 -6 0 -8 4 -5 8 3 5 -1 9 -8 9 -7
0 -34 15 -60 34 -27 19 -66 43 -89 55 -45 23 -44 24 33 49 91 29 321 114 385
142 181 79 315 145 355 174 33 24 45 24 48 -3z"/>
<path d="M2055 6483 c-86 -11 -244 -76 -326 -134 -14 -10 -30 -15 -34 -11 -5
4 -5 2 -2 -4 7 -12 -20 -29 -38 -25 -5 2 -7 0 -3 -4 7 -8 -21 -43 -35 -44 -5
0 -21 -17 -36 -38 -16 -21 -41 -50 -57 -65 -43 -40 -56 -56 -106 -125 -25 -34
-48 -60 -50 -58 -3 3 -5 -1 -5 -7 0 -19 -61 -105 -79 -112 -9 -3 -14 -13 -10
-21 3 -8 1 -17 -4 -20 -5 -3 -20 -28 -32 -55 -13 -28 -26 -50 -30 -50 -5 0 -8
-7 -8 -15 0 -8 -5 -15 -11 -15 -5 0 -7 -4 -4 -10 3 -5 -1 -10 -9 -10 -10 0
-16 -9 -16 -24 0 -14 -5 -28 -11 -32 -6 -3 -19 -26 -30 -51 -12 -28 -23 -42
-30 -37 -7 4 -9 3 -5 -4 9 -14 -12 -65 -24 -57 -5 3 -7 0 -5 -7 6 -15 -50
-130 -58 -121 -3 3 -9 -8 -12 -23 -11 -50 -49 -123 -58 -111 -5 7 -6 3 -2 -9
3 -12 1 -32 -4 -45 -5 -13 -10 -18 -10 -11 -1 7 -6 10 -12 6 -7 -4 -7 -10 -1
-16 10 -10 -7 -58 -21 -58 -5 0 -5 -5 -2 -10 3 -6 -1 -13 -9 -16 -9 -3 -13
-10 -10 -15 7 -12 -6 -70 -14 -65 -4 2 -8 -7 -9 -21 0 -14 -6 -29 -12 -32 -6
-4 -12 -19 -13 -34 -2 -28 -13 -36 -21 -14 -4 9 -6 9 -6 0 -1 -6 4 -15 9 -18
7 -4 5 -16 -4 -33 -21 -39 -41 -96 -38 -105 1 -5 -2 -6 -7 -2 -6 3 -15 -3 -20
-14 -8 -14 -8 -20 1 -23 10 -4 10 -10 1 -29 -6 -13 -12 -18 -12 -11 -1 7 -6
10 -11 7 -8 -5 -7 -11 1 -21 10 -12 9 -13 -4 -9 -12 5 -15 -1 -13 -37 3 -51
-12 -101 -28 -95 -8 3 -11 -4 -8 -23 2 -15 -3 -39 -12 -52 -9 -14 -14 -33 -10
-42 4 -11 2 -16 -6 -14 -7 2 -15 -3 -18 -11 -3 -9 0 -11 7 -7 6 4 2 -9 -9 -29
-11 -20 -16 -34 -10 -30 15 9 12 -11 -4 -28 -8 -8 -12 -25 -9 -43 3 -20 2 -25
-5 -16 -7 11 -10 10 -16 -3 -3 -9 -3 -21 0 -27 3 -5 -4 -19 -16 -30 -13 -13
-18 -23 -12 -27 8 -4 8 -20 1 -49 -5 -24 -6 -49 -2 -55 4 -7 0 -6 -10 2 -14
11 -18 11 -23 -4 -4 -9 -2 -20 4 -24 7 -4 5 -22 -8 -57 -12 -34 -14 -56 -8
-68 6 -11 5 -16 -3 -16 -7 0 -9 -9 -5 -25 5 -18 3 -23 -8 -19 -10 4 -13 -3
-11 -26 1 -16 -1 -33 -6 -36 -5 -3 -9 -19 -9 -35 0 -22 -4 -28 -12 -23 -8 5
-7 0 2 -11 8 -10 10 -16 4 -12 -7 4 -15 0 -18 -9 -3 -8 -2 -13 3 -10 5 3 12
-1 15 -10 4 -11 1 -14 -13 -9 -26 8 -35 -22 -16 -51 9 -13 11 -24 6 -24 -6 0
-15 -10 -22 -21 -8 -15 -8 -19 0 -15 6 4 11 2 11 -3 0 -6 -5 -11 -11 -11 -7 0
-9 -11 -6 -30 4 -16 2 -32 -3 -35 -6 -4 -7 -17 -4 -30 3 -12 1 -26 -5 -29 -5
-4 -7 -14 -4 -23 4 -9 -1 -19 -11 -25 -16 -9 -16 -11 3 -32 l21 -23 -26 -12
c-20 -9 -23 -15 -15 -24 7 -10 7 -17 0 -24 -8 -8 -7 -13 2 -18 8 -6 10 -4 4 6
-5 8 -4 11 0 6 10 -9 15 -48 7 -61 -2 -4 -8 -2 -13 5 -6 10 -9 7 -9 -11 0 -15
5 -31 12 -38 8 -8 8 -15 1 -24 -6 -7 -11 -26 -11 -43 0 -50 -1 -55 -17 -55 -8
0 -15 -4 -15 -10 0 -5 6 -10 13 -10 8 0 7 -4 -3 -10 -12 -8 -12 -12 -2 -18 9
-6 11 -28 8 -78 -4 -45 -2 -62 4 -49 8 18 9 16 10 -10 4 -62 7 -81 17 -100 6
-11 13 -36 17 -56 4 -21 13 -42 21 -49 8 -7 15 -21 15 -32 0 -11 9 -22 20 -25
18 -5 25 -24 23 -71 -1 -9 3 -10 11 -3 13 11 19 4 57 -58 15 -25 25 -32 40
-28 20 5 79 -41 79 -63 0 -5 7 -10 15 -10 9 0 18 -7 21 -15 4 -8 10 -13 15
-10 4 3 13 -4 19 -15 6 -11 20 -20 31 -20 11 0 22 -7 26 -16 3 -9 28 -26 54
-39 27 -12 45 -26 41 -31 -4 -4 0 -3 10 4 10 9 17 9 20 2 1 -5 14 -12 28 -15
14 -3 26 -9 28 -15 2 -5 13 -10 25 -10 18 0 19 -2 7 -10 -11 -7 -5 -10 25 -10
45 -1 74 -18 67 -39 -4 -11 0 -12 14 -6 34 15 82 14 88 -1 4 -11 10 -12 25 -5
10 6 22 7 26 3 9 -9 278 -9 286 0 4 7 55 15 117 20 6 1 12 5 12 9 0 5 6 6 14
3 7 -3 20 2 29 10 9 9 26 16 38 16 12 0 19 3 16 7 -10 9 41 33 57 27 8 -3 17
-1 21 5 3 6 13 11 22 11 9 0 22 8 30 18 8 9 12 11 8 5 -3 -7 -3 -13 2 -13 12
1 48 30 37 30 -20 0 22 20 44 20 12 0 22 5 22 10 0 6 7 10 16 10 8 0 12 4 9
10 -3 5 0 7 9 4 8 -3 23 4 33 15 9 12 25 21 35 21 10 0 18 6 19 13 0 6 17 26
37 42 20 17 32 23 27 15 -11 -19 -8 -17 58 58 64 72 113 168 97 187 -18 22
-63 3 -125 -50 -79 -68 -160 -127 -214 -156 -94 -51 -106 -57 -113 -52 -5 2
-8 0 -8 -5 0 -13 -125 -65 -205 -86 -137 -37 -449 -29 -482 12 -8 10 -13 11
-13 4 0 -7 -5 -12 -11 -12 -5 0 -8 4 -4 9 3 6 -3 10 -12 10 -43 1 -90 15 -109
32 -11 11 -23 16 -27 12 -4 -3 -15 0 -24 8 -10 9 -30 20 -45 27 -16 6 -28 16
-28 22 0 5 -6 10 -13 10 -20 0 -55 33 -50 48 3 7 -1 10 -11 6 -18 -7 -79 33
-71 47 4 5 0 6 -8 4 -7 -3 -19 5 -27 20 -7 14 -19 25 -26 25 -14 0 -94 92 -94
109 0 6 -4 11 -10 11 -5 0 -10 6 -10 13 0 7 -11 37 -25 66 -14 28 -23 56 -20
61 3 4 1 10 -4 12 -12 4 -18 69 -8 85 5 7 4 21 -1 30 -14 27 -5 185 10 195 10
6 10 8 -1 8 -10 0 -12 10 -7 43 3 23 8 76 11 117 4 41 11 93 16 115 5 22 16
78 23 125 30 180 86 421 96 415 4 -3 11 2 14 11 9 24 7 31 -4 14 -8 -13 -10
-13 -10 -1 0 16 27 125 40 156 4 11 17 56 28 100 29 111 60 216 71 240 5 11
21 62 37 113 16 50 32 92 37 92 4 0 6 4 3 9 -8 12 116 348 133 361 3 3 7 12 9
20 1 8 7 24 12 35 4 11 32 73 61 137 28 65 55 116 58 113 4 -2 8 5 8 16 2 24
61 141 77 151 6 4 7 8 2 8 -5 0 -2 8 7 18 8 9 20 30 26 45 6 16 15 26 20 22 5
-3 13 0 17 6 4 8 3 9 -4 5 -18 -11 -14 5 13 49 13 22 33 57 45 77 29 54 127
196 155 227 14 14 52 59 86 99 125 149 312 271 450 295 80 15 163 16 175 4 4
-4 14 -7 23 -7 22 -1 66 -41 85 -78 30 -58 44 -184 39 -342 -4 -128 -3 -153
13 -186 21 -46 30 -54 65 -54 41 0 54 75 53 295 -1 235 -18 303 -107 418 -49
63 -102 93 -190 106 -78 11 -96 12 -152 4z"/>
<path d="M6122 6310 c-77 -16 -135 -53 -218 -136 -83 -83 -130 -161 -212 -344
-101 -228 -185 -555 -217 -850 -3 -30 -8 -71 -10 -90 -8 -77 -16 -285 -17
-465 l-2 -190 -42 -85 c-46 -91 -77 -170 -126 -317 -17 -51 -33 -93 -37 -93
-10 0 -55 62 -94 130 -68 121 -93 137 -181 116 -32 -8 -62 -20 -67 -27 -23
-35 -52 -197 -95 -519 -6 -46 -35 -142 -46 -155 -11 -12 -71 53 -98 105 -27
53 -60 151 -60 177 0 13 9 32 20 43 11 11 20 26 20 33 0 7 4 17 9 23 6 5 -2
38 -20 82 -16 40 -34 105 -39 143 -6 38 -17 80 -24 92 -8 12 -19 40 -25 62
-35 138 -63 223 -94 284 -9 18 -14 39 -10 45 3 6 3 8 -2 4 -4 -4 -22 12 -39
36 -44 62 -94 116 -106 116 -5 0 -10 4 -10 8 0 15 -103 61 -151 67 -51 8 -143
-15 -199 -48 -74 -44 -146 -142 -212 -286 -21 -47 -43 -95 -48 -106 -5 -11
-20 -53 -33 -93 -13 -39 -27 -69 -32 -65 -4 5 -6 1 -2 -8 3 -9 -10 -79 -29
-155 -19 -77 -43 -182 -54 -234 -11 -52 -33 -160 -50 -240 -41 -189 -45 -331
-12 -403 24 -49 82 -117 102 -117 6 0 8 -4 5 -10 -3 -5 1 -10 10 -10 9 0 25
-9 37 -20 19 -18 45 -25 71 -21 4 1 16 -3 25 -8 32 -17 183 24 239 65 17 13
36 24 42 24 6 0 16 9 23 20 7 11 19 20 26 20 7 0 10 4 7 10 -3 6 -2 10 3 10
14 0 112 96 112 109 0 6 9 16 20 23 11 7 20 20 20 29 0 9 7 23 16 30 9 7 20
22 25 34 5 11 27 49 49 85 21 36 58 103 81 150 l42 85 18 -40 c10 -22 19 -47
19 -57 0 -9 4 -18 9 -20 5 -1 20 -26 35 -55 14 -29 39 -68 56 -86 16 -19 30
-40 30 -46 0 -7 4 -10 9 -7 4 3 18 -5 31 -19 12 -13 47 -32 77 -41 29 -9 56
-21 59 -26 7 -11 -24 -48 -38 -45 -6 1 -12 -6 -13 -17 -4 -22 -26 -46 -161
-181 -105 -103 -115 -113 -224 -206 -190 -163 -355 -230 -525 -214 -91 8 -146
0 -174 -26 -25 -23 -27 -42 -6 -63 9 -8 17 -19 18 -23 1 -4 7 -7 14 -5 7 2 16
-4 19 -12 3 -8 12 -12 20 -9 8 3 14 0 14 -5 0 -21 186 -37 222 -20 9 4 46 12
81 17 36 5 94 23 128 40 35 17 69 31 76 31 7 0 13 4 13 10 0 5 3 9 8 8 8 -3
59 29 80 49 8 7 35 27 60 45 26 17 57 42 69 55 12 13 25 23 28 23 19 0 233
219 371 380 22 25 47 51 57 58 9 7 17 19 17 25 0 7 21 33 46 57 25 25 72 79
104 120 32 41 78 95 101 120 23 25 52 59 63 75 12 17 36 46 54 65 36 40 195
233 221 269 10 13 23 21 29 17 11 -7 62 -111 62 -128 0 -5 8 -18 18 -29 11
-10 25 -32 33 -47 17 -35 109 -145 149 -178 16 -14 27 -31 23 -36 -3 -6 -1 -8
5 -4 6 3 27 -5 48 -19 20 -14 43 -25 50 -25 8 0 14 -5 14 -11 0 -6 7 -9 15 -6
8 4 17 2 19 -2 9 -15 151 -33 207 -27 90 9 106 16 204 89 90 66 283 239 237
213 -7 -4 6 18 29 48 23 31 45 56 48 56 4 0 15 16 25 35 11 19 23 35 28 35 4
0 8 6 8 14 0 8 11 24 24 37 13 13 22 29 19 36 -3 7 -3 13 0 13 3 0 22 -34 42
-76 20 -41 43 -78 51 -81 7 -3 11 -9 8 -14 -3 -5 2 -9 10 -9 8 0 24 -12 35
-26 12 -15 21 -23 21 -18 0 5 4 5 8 -1 11 -15 84 -53 117 -61 63 -14 147 2
194 38 13 10 30 18 37 18 8 0 14 5 14 10 0 6 5 10 11 10 13 0 156 150 175 183
7 12 17 31 23 42 5 11 17 29 28 40 20 22 113 172 113 182 0 4 8 16 19 27 10
12 40 62 66 111 26 50 52 93 57 96 5 3 9 9 9 13 -2 11 29 66 38 66 4 0 8 6 8
13 0 24 119 204 129 194 2 -2 6 -23 9 -48 16 -125 26 -183 36 -201 6 -11 8
-29 6 -40 -3 -11 -3 -17 0 -14 3 3 18 -20 34 -52 15 -31 37 -67 47 -79 32 -37
111 -73 158 -73 43 0 114 26 114 42 0 4 4 8 9 8 23 0 117 93 217 215 40 50 80
98 88 107 37 43 53 113 32 146 -10 16 -47 15 -70 -3 -10 -8 -23 -12 -29 -8 -6
3 -7 1 -3 -5 4 -7 3 -12 -3 -12 -5 0 -59 -47 -118 -104 -199 -191 -231 -216
-241 -187 -2 6 -10 17 -17 25 -36 36 -60 228 -64 509 -1 79 -3 90 -26 112 -27
28 -79 33 -133 14 -29 -10 -39 -22 -139 -169 -86 -125 -194 -298 -266 -424
-44 -78 -83 -142 -88 -144 -5 -2 -9 -8 -9 -12 0 -8 -78 -139 -90 -150 -6 -6
-39 -52 -81 -115 -46 -69 -129 -155 -178 -186 l-43 -28 -35 19 c-61 32 -102
88 -133 180 -45 129 -44 137 6 247 13 28 24 58 24 66 0 13 33 122 47 157 18
43 55 189 54 214 -1 39 -19 56 -76 70 -58 15 -165 4 -209 -22 -59 -34 -102
-164 -112 -337 -3 -60 -1 -139 4 -175 13 -85 8 -96 -124 -294 -10 -16 -28 -44
-39 -62 -11 -18 -33 -48 -50 -66 -16 -18 -29 -36 -28 -39 1 -4 -41 -49 -95
-101 -63 -61 -117 -104 -155 -122 -52 -26 -64 -28 -131 -22 -87 7 -141 32
-199 89 -50 49 -93 107 -89 119 1 4 -2 8 -7 8 -12 0 -75 124 -102 200 -32 95
-39 138 -23 144 8 3 14 10 14 16 0 6 11 23 25 38 14 15 25 31 25 36 0 4 12 23
28 41 15 18 36 45 47 60 11 15 39 53 63 84 23 31 57 77 74 104 17 26 35 47 39
47 5 0 9 7 9 15 0 8 10 25 23 38 12 12 22 24 22 27 2 12 68 110 75 110 4 0 11
11 14 25 4 14 11 25 16 25 6 0 10 9 10 20 0 11 5 20 10 20 6 0 10 7 10 15 0 7
6 18 13 22 7 4 24 31 37 58 14 28 30 57 37 65 6 8 37 67 69 130 32 63 61 117
64 120 3 3 6 12 8 20 3 19 13 44 40 100 12 25 24 59 27 75 7 31 17 58 41 110
8 17 16 41 19 55 17 91 28 136 36 146 5 6 8 24 7 40 -1 16 7 65 16 109 24 108
29 272 9 338 -30 100 -108 186 -218 238 -67 32 -195 45 -273 29z m247 -205
c60 -63 85 -101 78 -120 -4 -8 -1 -17 5 -21 14 -9 5 -168 -17 -289 -21 -119
-50 -225 -98 -360 -21 -60 -42 -119 -45 -130 -12 -42 -161 -325 -227 -430
-139 -224 -326 -495 -347 -503 -4 -2 -8 -8 -8 -14 0 -12 -63 -88 -73 -88 -5 0
-7 30 -6 68 2 37 0 73 -4 79 -5 7 -8 55 -7 105 1 51 0 98 -1 103 -1 6 -1 12
-1 15 0 3 3 78 7 165 6 151 14 235 36 385 6 36 11 80 12 98 1 17 6 32 11 32 4
0 6 18 4 40 -2 22 -1 41 2 42 3 2 13 22 22 45 11 30 13 44 5 52 -8 8 -7 11 2
11 8 0 11 7 8 20 -8 32 34 175 84 288 16 34 31 73 35 87 3 14 10 25 15 25 5 0
9 6 9 14 0 24 61 139 94 178 17 20 42 51 56 68 48 60 125 90 228 87 l73 -2 48
-50z m-2220 -1673 c48 -30 144 -152 120 -152 -8 0 -4 -8 8 -19 19 -18 35 -59
64 -161 7 -25 13 -47 14 -50 11 -51 19 -87 20 -95 1 -5 5 -18 10 -28 10 -24 3
-56 -37 -167 -76 -208 -199 -467 -259 -547 -21 -29 -39 -55 -39 -57 0 -16
-111 -136 -126 -136 -6 0 -14 -6 -17 -14 -7 -16 -86 -56 -113 -56 -39 0 -96
22 -125 48 -46 42 -64 144 -50 282 6 58 18 132 27 165 8 33 16 66 16 73 1 6 4
12 7 12 3 0 7 25 8 55 1 30 7 63 12 72 5 10 12 41 16 68 4 28 12 61 17 74 5
13 11 39 14 57 3 18 25 90 50 161 25 70 48 136 51 146 3 9 10 17 15 17 5 0 7
4 3 10 -7 12 59 144 85 170 11 11 17 20 13 20 -13 0 70 65 91 71 28 8 76 0
105 -19z m936 -811 c17 -22 42 -45 58 -52 15 -6 27 -14 27 -18 0 -3 -20 -27
-43 -52 -23 -25 -61 -68 -83 -95 -23 -27 -52 -60 -64 -74 l-23 -25 6 25 c7 30
43 255 52 323 7 54 2 57 70 -32z"/>
<path d="M740 4770 c0 -5 5 -10 10 -10 6 0 10 5 10 10 0 6 -4 10 -10 10 -5 0
-10 -4 -10 -10z"/>
<path d="M1976 4006 c10 -8 21 -12 24 -10 5 6 -21 24 -34 24 -6 0 -1 -6 10
-14z"/>
<path d="M3181 3904 c0 -11 3 -14 6 -6 3 7 2 16 -1 19 -3 4 -6 -2 -5 -13z"/>
<path d="M3210 3734 c0 -8 5 -12 10 -9 6 3 10 10 10 16 0 5 -4 9 -10 9 -5 0
-10 -7 -10 -16z"/>
<path d="M4427 3389 c4 -13 8 -18 11 -10 2 7 -1 18 -6 23 -8 8 -9 4 -5 -13z"/>
<path d="M325 3230 c4 -6 11 -8 16 -5 14 9 11 15 -7 15 -8 0 -12 -5 -9 -10z"/>
<path d="M281 3074 c0 -11 3 -14 6 -6 3 7 2 16 -1 19 -3 4 -6 -2 -5 -13z"/>
<path d="M5205 3080 c4 -6 11 -8 16 -5 14 9 11 15 -7 15 -8 0 -12 -5 -9 -10z"/>
<path d="M5160 3060 c0 -5 5 -10 10 -10 6 0 10 5 10 10 0 6 -4 10 -10 10 -5 0
-10 -4 -10 -10z"/>
<path d="M270 3042 c0 -5 11 -12 25 -14 14 -3 25 -1 25 3 0 5 -4 9 -9 9 -5 0
-16 3 -25 6 -9 3 -16 2 -16 -4z"/>
<path d="M240 2596 c0 -9 5 -16 10 -16 6 0 10 4 10 9 0 6 -4 13 -10 16 -5 3
-10 -1 -10 -9z"/>
<path d="M320 2570 c-9 -6 -10 -10 -3 -10 6 0 15 5 18 10 8 12 4 12 -15 0z"/>
<path d="M470 2350 c-9 -6 -10 -10 -3 -10 6 0 15 5 18 10 8 12 4 12 -15 0z"/>
<path d="M5005 2270 c3 -5 8 -10 11 -10 2 0 4 5 4 10 0 6 -5 10 -11 10 -5 0
-7 -4 -4 -10z"/>
<path d="M4920 2120 c0 -5 5 -10 10 -10 6 0 10 5 10 10 0 6 -4 10 -10 10 -5 0
-10 -4 -10 -10z"/>
<path d="M4920 2080 c0 -5 5 -10 10 -10 6 0 10 5 10 10 0 6 -4 10 -10 10 -5 0
-10 -4 -10 -10z"/>
<path d="M347 2061 c-4 -17 -3 -21 5 -13 5 5 8 16 6 23 -3 8 -7 3 -11 -10z"/>
<path d="M312 2054 c-11 -12 -10 -17 2 -29 9 -9 12 -23 9 -32 -6 -15 -5 -16 9
-3 12 12 13 19 5 35 -6 11 -10 26 -9 33 4 15 0 15 -16 -4z"/>
<path d="M406 1983 c-11 -11 -6 -23 9 -23 8 0 15 4 15 9 0 13 -16 22 -24 14z"/>
<path d="M631 1974 c0 -11 3 -14 6 -6 3 7 2 16 -1 19 -3 4 -6 -2 -5 -13z"/>
</g>
</svg>
